<!-- created by svgstack.com | Attribution is required. --><svg width="95" height="201" viewBox="0 0 95 201" fill="none" xmlns="http://www.w3.org/2000/svg"><g clip-path="url(#clip0_105_1290)"><path d="M79.8733 63.0813C79.8733 72.2277 76.0066 80.3144 69.6733 86.6411C62.6399 93.6744 52.4399 95.4411 52.4399 101.414C52.4399 109.501 65.4533 107.041 77.9399 119.528C86.2066 127.794 91.2999 138.694 91.2999 151.354C91.2999 176.321 71.2533 196.194 46.1133 196.194C20.9666 196.188 0.919922 176.341 0.919922 151.361C0.919922 138.701 6.01992 127.801 14.2866 119.534C26.7666 107.054 39.7799 109.514 39.7799 101.428C39.7799 95.4477 29.5799 93.6877 22.5466 86.6544C16.2133 80.3211 12.3466 72.2344 12.3466 62.7413C12.3466 44.4546 27.2933 29.6813 45.5799 29.6813C49.0999 29.6813 52.2666 30.2146 54.8999 30.2146C59.6533 30.2146 62.1133 28.1013 62.1133 24.7613C62.1133 22.8279 61.2333 20.3613 61.2333 17.7279C61.2333 11.7479 66.3333 6.82129 72.4866 6.82129C78.6399 6.82129 83.5666 11.9213 83.5666 18.0746C83.5666 24.5813 78.4666 27.5746 74.5999 28.9813C71.4333 30.0346 68.9666 31.4413 68.9666 34.6079C68.9666 40.5679 79.8733 46.3746 79.8733 63.0813ZM76.3533 151.368C76.3533 133.968 63.5199 119.894 46.1133 119.894C28.6999 119.894 15.8666 133.961 15.8666 151.368C15.8666 168.601 28.6999 182.848 46.1133 182.848C63.5133 182.848 76.3533 168.581 76.3533 151.368ZM65.9866 62.7279C65.9866 51.6546 57.0199 42.5079 46.1199 42.5079C35.2133 42.5079 26.2533 51.6546 26.2533 62.7279C26.2533 73.8077 35.2133 82.9544 46.1199 82.9544C57.0199 82.9544 65.9866 73.8077 65.9866 62.7279Z" fill="#008561"/></g><defs><clipPath id="clip0_105_1290"><rect width="93.3333" height="200" fill="white" transform="translate(0.919922 0.275146)"/></clipPath></defs></svg> 