<?xml version="1.0" standalone="no"?>
<!DOCTYPE svg PUBLIC "-//W3C//DTD SVG 20010904//EN"
 "http://www.w3.org/TR/2001/REC-SVG-20010904/DTD/svg10.dtd">
<svg version="1.0" xmlns="http://www.w3.org/2000/svg"
 width="128.000000pt" height="32.000000pt" viewBox="0 0 128.000000 32.000000"
 preserveAspectRatio="xMidYMid meet">

<g transform="translate(0.000000,32.000000) scale(0.100000,-0.100000)"
fill="#000000" stroke="none">
<path d="M0 164 l0 -156 87 4 c85 3 87 4 94 30 l7 28 -59 0 -59 0 0 125 0 125
-35 0 -35 0 0 -156z"/>
<path d="M230 165 l0 -156 95 2 95 2 0 28 c0 29 0 29 -66 29 l-65 0 3 38 c3
37 3 37 51 40 42 3 47 5 47 28 0 22 -4 24 -50 24 -49 0 -50 1 -50 30 l0 30 60
0 c45 0 60 4 60 14 0 8 3 21 6 30 5 14 -6 16 -90 16 l-96 0 0 -155z"/>
<path d="M489 243 c86 -230 85 -228 115 -228 31 0 24 -14 121 243 l24 62 -33
0 c-34 0 -34 0 -71 -105 -21 -58 -40 -104 -42 -102 -2 2 -18 49 -37 103 l-33
99 -36 3 -37 3 29 -78z"/>
<path d="M793 168 l2 -153 95 0 95 0 3 28 3 27 -65 0 -66 0 0 40 0 40 45 0
c41 0 45 2 45 25 0 23 -4 25 -45 25 -43 0 -45 1 -45 30 0 28 1 29 58 32 54 3
57 4 60 31 l3 27 -95 0 -95 0 2 -152z"/>
<path d="M1040 168 l0 -154 30 -2 30 -2 0 65 c0 79 10 78 63 -4 33 -52 40 -58
72 -58 19 0 35 2 35 4 0 2 -18 31 -40 63 -45 66 -46 70 -26 70 22 0 46 40 46
77 0 19 -9 43 -23 59 -21 24 -32 28 -105 32 l-82 5 0 -155z m117 96 c28 -8 40
-42 22 -59 -8 -8 -27 -15 -44 -17 -29 -3 -30 -1 -33 40 -3 45 4 50 55 36z"/>
</g>
</svg>
